# xmcd CD database file
#
# Track frame offsets:
#	150
#	17278
#	31806
#	44068
#	60639
#	76624
#	93980
#	110767
#	127975
#	146418
#	164069
#	185626
#
# Disc length: 2787 seconds
#
# Revision: 0
# Processed by: cddbd v1.5.2PL0 Copyright (c) Steve Scherf et al.
# Submitted via: CDex 1.51
#
DISCID=990ae10c
DTITLE=Nadja Zela - Wrong Side Of Town
DYEAR=2011
DGENRE=Country
TTITLE0=Wrong Side Of Town
TTITLE1=The Hole
TTITLE2=Golden Years
TTITLE3=Love Sleeps In Your Bed
TTITLE4=Bye Bye Broadway
TTITLE5=Only Friends
TTITLE6=Black Cobra
TTITLE7=Cold Cold Rain
TTITLE8=My Only Son
TTITLE9=Last Night I Burnt My Guitar
TTITLE10=Hometown Blues
TTITLE11=The End Of The World Is My Home
EXTD=YEAR: 2011
EXTT0=
EXTT1=
EXTT2=
EXTT3=
EXTT4=
EXTT5=
EXTT6=
EXTT7=
EXTT8=
EXTT9=
EXTT10=
EXTT11=
PLAYORDER=
